

#N canvas 957 305 486 648 10;
#X declare -lib moocow;
#X declare -lib oscx;
#X msg 47 82 close;
#X obj 632 13 import moocow;
#X obj 30 294 bytes2any;
#X obj 30 233 sel 10 13;
#X msg 68 116 ports;
#X obj 123 193 print COMPORT;
#X obj 30 264 zl group 100;
#X text 87 48 open serial port with index;
#X text 403 18 library for bytes2any object;
#X text 103 293 converts bytes back to ascii;
#X text 121 263 groups bytes for one line (arg max bytes);
#X text 141 170 serial port object;
#X text 116 116 list ports. can take a long time \, be patient;
#X text 99 81 close serial port. frees it for other software;
#X text 105 233 handles line endings (bytes 10 13);
#X obj 95 145 any2bytes;
#X obj 22 389 print SERIAL;
#X obj 115 427 bng 15 250 50 0 empty empty empty 17 7 0 10 -262144
-1 -1;
#X obj 157 426 bng 15 250 50 0 empty empty empty 17 7 0 10 -262144
-1 -1;
#X obj 30 170 comport 3 9600;
#X obj 117 382 route dot dash;
#X text 159 145 INPUT convert to bytes for serial port;
#X msg 53 554 start;
#X obj 631 44 import oscx;
#X text 494 41 Reciving on port 12000;
#X obj 405 42 dumpOSC 2345;
#X obj 406 127 OSCroute /word;
#X msg 117 555 open bell.wav;
#X msg 211 555 start;
#X obj 210 470 t b b;
#X msg 283 551 open bell_ring.wav;
#X obj 53 649 dac~;
#X obj 90 472 t b b;
#X obj 54 603 readsf~;
#X obj 212 597 readsf~;
#X msg 31 48 open 3;
#X connect 0 0 19 0;
#X connect 2 0 16 0;
#X connect 2 0 20 0;
#X connect 3 0 6 0;
#X connect 3 2 6 0;
#X connect 4 0 19 0;
#X connect 6 0 2 0;
#X connect 15 0 19 0;
#X connect 17 0 32 0;
#X connect 18 0 29 0;
#X connect 19 0 3 0;
#X connect 19 1 5 0;
#X connect 20 0 17 0;
#X connect 20 1 18 0;
#X connect 22 0 33 0;
#X connect 25 0 26 0;
#X connect 26 0 15 0;
#X connect 27 0 33 0;
#X connect 28 0 34 0;
#X connect 29 0 28 0;
#X connect 29 1 30 0;
#X connect 30 0 34 0;
#X connect 32 0 22 0;
#X connect 32 1 27 0;
#X connect 33 0 31 0;
#X connect 34 0 31 1;
#X connect 35 0 19 0;
